<?xml version="1.0" encoding="UTF-8" standalone="no"?>
<svg
   xmlns:dc="http://purl.org/dc/elements/1.1/"
   xmlns:cc="http://creativecommons.org/ns#"
   xmlns:rdf="http://www.w3.org/1999/02/22-rdf-syntax-ns#"
   xmlns:svg="http://www.w3.org/2000/svg"
   xmlns="http://www.w3.org/2000/svg"
   xmlns:sodipodi="http://sodipodi.sourceforge.net/DTD/sodipodi-0.dtd"
   xmlns:inkscape="http://www.inkscape.org/namespaces/inkscape"
   height="114pt"
   width="431pt"
   version="1.1"
   enable-background="new"
   viewBox="0 0 431 114"
   id="svg3097"
   inkscape:version="0.48.4 r9939"
   sodipodi:docname="dascritch-esquisse.svg">
  <defs
     id="defs3153" />
  <sodipodi:namedview
     pagecolor="#ffffff"
     bordercolor="#666666"
     borderopacity="1"
     objecttolerance="10"
     gridtolerance="10"
     guidetolerance="10"
     inkscape:pageopacity="0"
     inkscape:pageshadow="2"
     inkscape:window-width="1504"
     inkscape:window-height="974"
     id="namedview3151"
     showgrid="false"
     inkscape:zoom="2.02"
     inkscape:cx="221.39237"
     inkscape:cy="55.364704"
     inkscape:window-x="0"
     inkscape:window-y="0"
     inkscape:window-maximized="0"
     inkscape:current-layer="svg3097" />
  <metadata
     id="metadata3099">
    <rdf:RDF>
      <cc:Work
         rdf:about="">
        <dc:format>image/svg+xml</dc:format>
        <dc:type
           rdf:resource="http://purl.org/dc/dcmitype/StillImage" />
        <dc:title />
      </cc:Work>
    </rdf:RDF>
  </metadata>
  <style
     id="style3101">
		g {
			fill : none;
			stroke: blue;
			stroke-width: 1;
		}
	</style>
  <g
     id="g3103"
     style="stroke-width:0.4;stroke-miterlimit:4;stroke-dasharray:1.6,1.6;stroke-dashoffset:0">
    <g
       id="g3105"
       style="stroke-width:0.4;stroke-miterlimit:4;stroke-dasharray:1.6,1.6;stroke-dashoffset:0">
      <path
         d="m205.5,94.65c-0.00003,1.196-0.4091,2.203-1.227,3.021-0.8182,0.8181-1.825,1.227-3.021,1.227h-7.458c-3.241,0-5.994-1.133-8.26-3.398-2.266-2.266-3.398-5.019-3.398-8.26-0.00001-3.241,1.117-5.979,3.351-8.213,2.266-2.234,5.035-3.367,8.307-3.398l8.638-0.0472c0.8496,0.000023,1.573,0.3147,2.171,0.944,0.5978,0.5979,0.8968,1.322,0.8968,2.171-0.00003,0.8496-0.299,1.589-0.8968,2.218-0.5979,0.5979-1.322,0.8968-2.171,0.8968h-5.098c-0.944,0.000017-1.746,0.3304-2.407,0.9912-0.6294,0.6293-0.944,1.416-0.944,2.36-0.00002,0.9125,0.3304,1.699,0.9912,2.36,0.6608,0.6608,1.447,0.9912,2.36,0.9912l3.918-0.0472c1.164,0.000011,2.155,0.4248,2.974,1.274,0.8496,0.8181,1.274,1.809,1.274,2.974v1.935"
         id="path3107"
         style="stroke-width:0.4;stroke-miterlimit:4;stroke-dasharray:1.6,1.6;stroke-dashoffset:0" />
      <path
         d="m 230.8,87.76 c -2e-5,3.241 -1.133,5.994 -3.398,8.26 -2.266,2.266 -5.019,3.398 -8.26,3.398 -3.241,0 -5.994,-1.133 -8.26,-3.398 -2.234,-2.266 -3.351,-5.019 -3.351,-8.26 0,-3.241 1.117,-5.979 3.351,-8.213 2.266,-2.266 5.019,-3.398 8.26,-3.398 3.241,2.3e-5 5.994,1.133 8.26,3.398 2.266,2.234 3.398,4.972 3.398,8.213 m -9.487,4.767 c -10e-6,-0.944 -0.3304,-1.731 -0.9912,-2.36 -0.6608,-0.6608 -1.463,-0.9912 -2.407,-0.9912 -0.944,1e-5 -1.746,0.3304 -2.407,0.9912 -0.6293,0.6293 -0.944,1.416 -0.944,2.36 -10e-6,1.416 0.5664,2.407 1.699,2.974 0.5664,0.2832 1.117,0.4248 1.652,0.4248 0.944,3e-6 1.746,-0.3304 2.407,-0.9912 0.6608,-0.6608 0.9912,-1.463 0.9912,-2.407"
         id="path3109"
         inkscape:connector-curvature="0"
         sodipodi:nodetypes="ccscsssccccccscscc"
         style="stroke-width:0.4;stroke-miterlimit:4;stroke-dasharray:1.6,1.6;stroke-dashoffset:0" />
      <path
         d="m268.9,95.79c-0.00004,0.8811-0.299,1.621-0.8968,2.218-0.5664,0.5979-1.29,0.8968-2.171,0.8968-0.8811,0-1.621-0.2832-2.218-0.8496-0.5979-0.5979-0.8968-1.337-0.8968-2.218v-5.428c-0.00004-0.9125-0.3304-1.699-0.9912-2.36-0.6608-0.6608-1.448-0.9912-2.36-0.9912-0.9126,0.000012-1.699,0.2989-2.36,0.8968-0.6608,0.5664-0.9912,1.306-0.9912,2.218v5.617c-0.00003,0.8811-0.299,1.621-0.8968,2.218-0.5664,0.5979-1.29,0.8968-2.171,0.8968-0.8811,0-1.621-0.2832-2.218-0.8496-0.5979-0.5979-0.8968-1.337-0.8968-2.218v-5.428c-0.00002-0.9125-0.3304-1.699-0.9912-2.36-0.6608-0.6608-1.447-0.9912-2.36-0.9912-0.944,0.000012-1.746,0.3304-2.407,0.9912-0.6294,0.6293-0.944,1.416-0.944,2.36v4.248c-0.00002,1.164-0.4248,2.171-1.274,3.021-0.8182,0.8181-1.809,1.227-2.974,1.227h-1.935c-1.164,0-2.171-0.4091-3.021-1.227-0.8181-0.8496-1.227-1.857-1.227-3.021v-14.25c-0.00001-1.164,0.4091-2.155,1.227-2.974,0.8496-0.8496,1.857-1.274,3.021-1.274h0.3304c0.944,0.000023,1.794,0.299,2.549,0.8968,1.447-0.6293,2.958-0.944,4.531-0.944,2.36,0.000023,4.515,0.6608,6.466,1.982,1.951-1.29,4.091-1.935,6.419-1.935,3.21,0.000023,5.947,1.133,8.213,3.398,2.297,2.266,3.446,5.003,3.446,8.213v8.024"
         id="path3111"
         style="stroke-width:0.4;stroke-miterlimit:4;stroke-dasharray:1.6,1.6;stroke-dashoffset:0" />
    </g>
  </g>
  <g
     id="g3113"
     style="stroke-width:0.4;stroke-miterlimit:4;stroke-dasharray:1.6,1.6;stroke-dashoffset:0">
    <g
       id="g3115"
       style="stroke-width:0.4;stroke-miterlimit:4;stroke-dasharray:1.6,1.6;stroke-dashoffset:0">
      <path
         d="m282.5,85.35-2.502,2.69-1.038,3.493-3.351-1.558-3.634,0.0944,0.4248-3.634-1.18-3.446,3.587-0.708,2.926-2.218,1.746,3.21,3.021,2.077"
         id="path3117"
         style="stroke-width:0.4;stroke-miterlimit:4;stroke-dasharray:1.6,1.6;stroke-dashoffset:0" />
      <path
         d="m322.4,80.4-0.0472,7.316c-0.0315,3.241-1.164,5.994-3.398,8.26s-4.972,3.398-8.213,3.398c-2.36,0-4.515-0.6451-6.466-1.935-1.951,1.29-4.091,1.935-6.419,1.935-3.241,0-5.994-1.133-8.26-3.398-2.266-2.266-3.398-5.019-3.398-8.26v-8.496c0-0.8496,0.2989-1.573,0.8968-2.171,0.5979-0.5978,1.322-0.8968,2.171-0.8968,0.8496,0.000023,1.573,0.299,2.171,0.8968,0.6293,0.5979,0.944,1.322,0.944,2.171v4.956c-0.00001,0.944,0.3147,1.746,0.944,2.407,0.6608,0.6293,1.463,0.944,2.407,0.944,0.8811,0.000011,1.652-0.2989,2.313-0.8968,0.6922-0.5979,1.038-1.322,1.038-2.171v-5.239c-0.00001-0.8496,0.2989-1.573,0.8968-2.171,0.5978-0.5978,1.322-0.8968,2.171-0.8968,0.8496,0.000023,1.573,0.299,2.171,0.8968,0.6293,0.5979,0.944,1.322,0.944,2.171v4.956c-0.00002,0.944,0.3146,1.746,0.944,2.407,0.6608,0.6293,1.463,0.944,2.407,0.944,0.9125,0.000011,1.699-0.3304,2.36-0.9912,0.6608-0.6608,0.9912-1.447,0.9912-2.36v-3.776c-0.00003-1.196,0.409-2.203,1.227-3.021,0.8181-0.8181,1.825-1.227,3.021-1.227h1.935c1.164,0.000023,2.155,0.4248,2.974,1.274,0.8496,0.8182,1.274,1.809,1.274,2.974"
         id="path3119"
         style="stroke-width:0.4;stroke-miterlimit:4;stroke-dasharray:1.6,1.6;stroke-dashoffset:0" />
      <path
         d="m 347.8,87.76 c -3e-5,3.241 -1.133,5.994 -3.398,8.26 -2.266,2.266 -5.019,3.398 -8.26,3.398 -3.241,0 -5.994,-1.133 -8.26,-3.398 -2.234,-2.266 -3.351,-5.019 -3.351,-8.26 -1e-5,-3.241 1.117,-5.979 3.351,-8.213 2.266,-2.266 5.019,-3.398 8.26,-3.398 3.241,2.3e-5 5.994,1.133 8.26,3.398 2.266,2.234 3.398,4.972 3.398,8.213 m -9.487,4.767 c -2e-5,-0.944 -0.3304,-1.731 -0.9912,-2.36 -0.6608,-0.6608 -1.463,-0.9912 -2.407,-0.9912 -0.944,1e-5 -1.746,0.3304 -2.407,0.9912 -0.6294,0.6293 -0.944,1.416 -0.944,2.36 -1e-5,1.416 0.5664,2.407 1.699,2.974 0.5664,0.2832 1.117,0.4248 1.652,0.4248 0.944,3e-6 1.746,-0.3304 2.407,-0.9912 0.6608,-0.6608 0.9912,-1.463 0.9912,-2.407"
         id="path3121"
         inkscape:connector-curvature="0"
         sodipodi:nodetypes="ccscsssccccccscscc"
         style="stroke-width:0.4;stroke-miterlimit:4;stroke-dasharray:1.6,1.6;stroke-dashoffset:0" />
      <path
         d="m373,90.55c-0.00003,0.8811-0.299,1.621-0.8968,2.218-0.5664,0.5979-1.29,0.8968-2.171,0.8968-0.8811,0.000005-1.621-0.2832-2.218-0.8496-0.5979-0.5979-0.8968-1.337-0.8968-2.218v-0.1888c-0.00002-0.9125-0.3304-1.699-0.9912-2.36-0.6608-0.6608-1.447-0.9912-2.36-0.9912-0.944,0.000012-1.746,0.3304-2.407,0.9912-0.6294,0.6293-0.944,1.416-0.944,2.36v4.248c-0.00001,1.164-0.4248,2.171-1.274,3.021-0.8182,0.8181-1.809,1.227-2.974,1.227h-1.935c-1.164,0-2.171-0.4091-3.021-1.227-0.8181-0.8496-1.227-1.857-1.227-3.021v-14.25c0-1.164,0.4091-2.155,1.227-2.974,0.8496-0.8496,1.857-1.274,3.021-1.274h0.3304c0.944,0.000023,1.794,0.299,2.549,0.8968,1.447-0.6293,2.958-0.944,4.531-0.944,3.304,0.000023,6.073,1.149,8.307,3.446s3.351,5.098,3.351,8.402v2.596"
         id="path3123"
         style="stroke-width:0.4;stroke-miterlimit:4;stroke-dasharray:1.6,1.6;stroke-dashoffset:0" />
      <path
         d="m398.3,93.76c-0.00003,1.416-0.5035,2.627-1.51,3.634-1.007,1.007-2.218,1.51-3.634,1.51-1.447,0-2.659-0.4877-3.634-1.463-0.9755-1.007-1.463-2.234-1.463-3.682v-1.038c-0.00002-1.07-0.5192-1.746-1.558-2.03-0.3147-0.03146-0.6451-0.06292-0.9912-0.0944-1.007,0.1888-1.573,0.7867-1.699,1.794v2.266c-0.00001,1.164-0.4248,2.171-1.274,3.021-0.8181,0.8181-1.809,1.227-2.974,1.227h-0.3304c-1.164,0-2.171-0.4091-3.021-1.227-0.8181-0.8496-1.227-1.857-1.227-3.021v-24.59c0-1.164,0.4091-2.155,1.227-2.974,0.8496-0.8496,1.857-1.274,3.021-1.274h1.935c1.164,0.000033,2.155,0.4248,2.974,1.274,0.8496,0.8182,1.274,1.809,1.274,2.974v6.325c-0.00001,0.944,0.3146,1.746,0.944,2.407,0.6608,0.6294,1.463,0.944,2.407,0.944,0.9125,0.000019,1.699-0.3304,2.36-0.9912,0.6608-0.6608,0.9912-1.447,0.9912-2.36v-1.369c-0.00002-0.881,0.2989-1.605,0.8968-2.171,0.5978-0.5978,1.337-0.8968,2.218-0.8968,0.8496,0.000027,1.573,0.299,2.171,0.8968,0.5978,0.5979,0.8968,1.322,0.8968,2.171v3.823c-0.00003,2.863-0.8811,5.381-2.643,7.552,1.762,2.14,2.643,4.594,2.643,7.363"
         id="path3125"
         style="stroke-width:0.4;stroke-miterlimit:4;stroke-dasharray:1.6,1.6;stroke-dashoffset:0" />
      <path
         d="m423.7,91.92c-0.00003,1.919-0.6923,3.571-2.077,4.956-1.353,1.353-2.989,2.03-4.909,2.03h-13.4c-0.8496,0-1.573-0.2989-2.171-0.8968-0.5979-0.5979-0.8968-1.322-0.8968-2.171-0.00001-0.8496,0.2989-1.573,0.8968-2.171,0.6293-0.5979,1.369-0.8968,2.218-0.8968h3.918c0.881,0.000006,1.322-0.4405,1.322-1.322-0.00001-0.8811-0.4563-1.322-1.369-1.322-1.951,0.000009-3.603-0.6765-4.956-2.03-1.353-1.353-2.03-3.005-2.03-4.956-0.00001-1.919,0.6765-3.556,2.03-4.909,1.385-1.385,3.037-2.077,4.956-2.077h13.4c0.8496,0.000023,1.573,0.299,2.171,0.8968,0.5978,0.5979,0.8968,1.322,0.8968,2.171-0.00003,0.8496-0.3147,1.573-0.944,2.171-0.5979,0.5979-1.322,0.8968-2.171,0.8968h-4.909c-0.8811,0.000017-1.322,0.4406-1.322,1.322-0.00002,0.8811,0.4562,1.322,1.369,1.322h0.9912c1.919,0.000014,3.556,0.6923,4.909,2.077,1.385,1.353,2.077,2.989,2.077,4.909"
         id="path3127"
         style="stroke-width:0.4;stroke-miterlimit:4;stroke-dasharray:1.6,1.6;stroke-dashoffset:0" />
    </g>
  </g>
  <g
     id="g3129"
     style="stroke-width:0.4;stroke-miterlimit:4;stroke-dasharray:1.6,1.6;stroke-dashoffset:0">
    <g
       id="g3131"
       style="stroke-width:0.4;stroke-miterlimit:4;stroke-dasharray:1.6,1.6;stroke-dashoffset:0">
      <path
         d="m 69.35,11.3 0.5,0 c 1.776,5e-5 3.277,0.654 4.525,1.95 1.296,1.248 1.95,2.749 1.95,4.525 l 0,37.52 c -3.9e-5,1.776 -0.654,3.304 -1.95,4.6 -1.248,1.248 -2.749,1.875 -4.525,1.875 l -0.5,0 c -1.2,0 -2.344,-0.301 -3.4,-0.925 -2.4,1.152 -4.937,1.725 -7.625,1.725 -4.944,-10e-7 -9.144,-1.744 -12.6,-5.2 -3.456,-3.456 -5.175,-7.656 -5.175,-12.6 -3e-6,-4.896 1.719,-9.069 5.175,-12.52 3.456,-3.456 7.656,-5.175 12.6,-5.175 1.536,3.4e-5 3.062,0.191 4.55,0.575 l 0,-9.875 c -2.6e-5,-1.776 0.627,-3.277 1.875,-4.525 1.296,-1.296 2.824,-1.95 4.6,-1.95 z M 55.305,34.695 c -1.776,2.7e-5 -3.25,0.627 -4.45,1.875 -1.2,1.2 -1.8,2.672 -1.8,4.4 -1.2e-5,1.728 0.6,3.202 1.8,4.45 1.2,1.2 2.674,1.8 4.45,1.8 1.728,1.4e-5 3.2,-0.6 4.4,-1.8 1.248,-1.248 1.875,-2.722 1.875,-4.45 -2.4e-5,-1.728 -0.627,-3.2 -1.875,-4.4 -1.2,-1.248 -2.672,-1.875 -4.4,-1.875 z"
         id="path3133"
         inkscape:connector-curvature="0"
         sodipodi:nodetypes="sccscssscsssccccssccscssccc"
         style="stroke-width:0.4;stroke-miterlimit:4;stroke-dasharray:1.6,1.6;stroke-dashoffset:0" />
      <path
         d="m 127,33.84 c 3,4.3e-5 5.93,0.6125 8.75,1.812 1.44,-1.2 3.111,-1.812 5.031,-1.812 l 0.625,0 c 2.22,4.3e-5 4.127,0.8175 5.688,2.438 1.62,1.56 2.406,3.436 2.406,5.656 l 0,27.19 c -5e-5,2.22 -0.7863,4.13 -2.406,5.75 -1.56,1.56 -3.468,2.344 -5.688,2.344 l -0.625,0 c -1.5,0 -2.899,-0.3762 -4.219,-1.156 -3,1.44 -6.203,2.156 -9.562,2.156 -6.18,-10e-7 -11.43,-2.18 -15.75,-6.5 -4.32,-4.32 -6.469,-9.57 -6.469,-15.75 0,-6.12 2.149,-11.34 6.469,-15.66 4.32,-4.32 9.57,-6.469 15.75,-6.469 z m -2.25,9.531 c -2.16,3.4e-5 -4.003,0.7838 -5.562,2.344 -1.5,1.5 -2.25,3.34 -2.25,5.5 -2e-5,2.16 0.75,4.003 2.25,5.562 1.56,1.5 3.402,2.25 5.562,2.25 2.16,1.8e-5 4,-0.75 5.5,-2.25 1.56,-1.56 2.344,-3.402 2.344,-5.562 -2e-5,-2.16 -0.7838,-4 -2.344,-5.5 -1.5,-1.56 -3.34,-2.344 -5.5,-2.344 z"
         transform="scale(0.8,0.8)"
         id="path3135"
         inkscape:connector-curvature="0"
         sodipodi:nodetypes="ccsccsccsscssssccccscssscc"
         style="stroke-width:0.5;stroke-miterlimit:4;stroke-dasharray:2,2;stroke-dashoffset:0" />
      <path
         d="m 185.2,51.122 c -4e-5,-2.928 -1.056,-5.424 -3.168,-7.488 -2.064,-2.112 -4.56,-3.168 -7.488,-3.168 l -1.512,0 c -1.392,2.1e-5 -2.088,-0.672 -2.088,-2.016 -3e-5,-1.344 0.672,-2.016 2.016,-2.016 l 7.488,0 c 1.296,2.5e-5 2.4,-0.456 3.312,-1.368 0.96,-0.912 1.44,-2.016 1.44,-3.312 -4e-5,-1.296 -0.456,-2.4 -1.368,-3.312 -0.912,-0.912 -2.016,-1.368 -3.312,-1.368 l -20.45,0 c -2.928,3.4e-5 -5.448,1.056 -7.56,3.168 -2.064,2.064 -3.096,4.56 -3.096,7.488 -10e-6,2.976 1.032,5.496 3.096,7.56 2.112,2.064 4.632,3.096 7.56,3.096 1.392,1.3e-5 2.088,0.672 2.088,2.016 -2e-5,1.344 -0.672,2.016 -2.016,2.016 l -5.976,0 c -1.296,9e-6 -2.424,0.456 -3.384,1.368 -0.912,0.912 -1.368,2.016 -1.368,3.312 -10e-6,1.296 0.456,2.4 1.368,3.312 0.912,0.912 2.016,1.368 3.312,1.368 l 20.45,0 c 2.928,0 5.424,-1.032 7.488,-3.096 2.112,-2.112 3.168,-4.632 3.168,-7.56"
         id="path3137"
         inkscape:connector-curvature="0"
         sodipodi:nodetypes="ccsccscccsscsscscsscsssssc"
         style="stroke-width:0.4;stroke-miterlimit:4;stroke-dasharray:1.6,1.6;stroke-dashoffset:0" />
      <path
         d="m 227.802,55.298 0,-2.952 c -4e-5,-1.776 -0.648,-3.288 -1.944,-4.536 -1.248,-1.296 -2.76,-1.944 -4.536,-1.944 -1.248,1.6e-5 -3.24,0.02402 -5.976,0.072 -1.392,1.5e-5 -2.592,-0.504 -3.6,-1.512 -1.008,-1.008 -1.512,-2.208 -1.512,-3.6 -2e-5,-1.44 0.504,-2.64 1.512,-3.6 1.008,-1.008 2.208,-1.512 3.6,-1.512 l 7.776,0 c 1.296,2.6e-5 2.4,-0.456 3.312,-1.368 0.912,-0.96 1.368,-2.088 1.368,-3.384 -4e-5,-1.296 -0.456,-2.4 -1.368,-3.312 -0.912,-0.96 -2.016,-1.44 -3.312,-1.44 l -13.18,0.072 c -4.944,3.5e-5 -9.144,1.728 -12.6,5.184 -3.456,3.456 -5.184,7.632 -5.184,12.53 0,4.896 1.728,9.096 5.184,12.6 3.456,3.456 7.656,5.184 12.6,5.184 l 11.38,0 c 1.776,0 3.288,-0.624 4.536,-1.872 1.296,-1.248 1.944,-2.784 1.944,-4.608"
         id="path3139"
         inkscape:connector-curvature="0"
         sodipodi:nodetypes="cccccsccsccccccsscsscc"
         style="stroke-width:0.4;stroke-miterlimit:4;stroke-dasharray:1.6,1.6;stroke-dashoffset:0" />
      <path
         d="m 270.704,49.038 0,-3.96 c 0.048,-5.04 -1.68,-9.312 -5.184,-12.82 -3.504,-3.504 -7.704,-5.256 -12.6,-5.256 -2.4,3.4e-5 -4.704,0.48 -6.912,1.44 -1.152,-0.912 -2.448,-1.368 -3.888,-1.368 l -0.504,0 c -1.776,3.4e-5 -3.312,0.648 -4.608,1.944 -1.248,1.248 -1.872,2.76 -1.872,4.536 l 0,21.74 c -1e-5,1.776 0.624,3.312 1.872,4.608 1.296,1.248 2.832,1.872 4.608,1.872 l 2.952,0 c 1.776,0 3.288,-0.624 4.536,-1.872 1.296,-1.296 1.944,-2.832 1.944,-4.608 -2e-5,-1.248 -2e-5,-3.408 0,-6.48 -2e-5,-1.392 0.48,-2.592 1.44,-3.6 1.008,-1.008 2.232,-1.512 3.672,-1.512 1.392,1.8e-5 2.592,0.504 3.6,1.512 1.008,1.008 1.512,2.208 1.512,3.6 l 0,0.288 c -3e-5,1.296 0.456,2.4 1.368,3.312 0.912,0.912 2.04,1.368 3.384,1.368 1.296,8e-6 2.4,-0.456 3.312,-1.368 0.912,-0.912 1.368,-2.04 1.368,-3.384"
         id="path3141"
         inkscape:connector-curvature="0"
         sodipodi:nodetypes="cccccscssscsssccccsscsssc"
         style="stroke-width:0.4;stroke-miterlimit:4;stroke-dasharray:1.6,1.6;stroke-dashoffset:0" />
      <path
         d="m 294.566,16.923 -4.608,-3.24 -2.664,-4.896 -4.464,3.384 -5.472,1.08 1.8,5.256 -0.72,5.544 5.616,-0.144 5.04,2.448 1.656,-5.4 3.816,-4.032 m -3.024,38.38 0,-21.74 c -2e-5,-1.776 -0.648,-3.288 -1.944,-4.536 -1.248,-1.296 -2.76,-1.944 -4.536,-1.944 l -0.504,0 c -1.776,3.4e-5 -3.312,0.648 -4.608,1.944 -1.248,1.248 -1.872,2.76 -1.872,4.536 l 0,21.74 c -10e-6,1.776 0.624,3.312 1.872,4.608 1.296,1.248 2.832,1.872 4.608,1.872 l 0.504,0 c 1.776,0 3.288,-0.624 4.536,-1.872 1.296,-1.296 1.944,-2.832 1.944,-4.608"
         id="path3143"
         inkscape:connector-curvature="0"
         sodipodi:nodetypes="ccccccccccccccscssscsssc"
         style="stroke-width:0.4;stroke-miterlimit:4;stroke-dasharray:1.6,1.6;stroke-dashoffset:0" />
      <path
         d="m 334.496,38.596 c -4e-5,-1.296 -0.48,-2.4 -1.44,-3.312 -0.912,-0.912 -2.016,-1.368 -3.312,-1.368 -1.344,2.7e-5 -2.472,0.432 -3.384,1.296 -0.912,0.864 -1.368,1.992 -1.368,3.384 -3e-5,1.392 -0.504,2.592 -1.512,3.6 -0.96,1.008 -2.16,1.512 -3.6,1.512 -1.392,1.8e-5 -2.592,-0.504 -3.6,-1.512 -1.008,-1.008 -1.512,-2.208 -1.512,-3.6 l 0,-6.264 8.712,0 c 1.296,2.9e-5 2.4,-0.456 3.312,-1.368 0.96,-0.96 1.44,-2.088 1.44,-3.384 -4e-5,-1.296 -0.48,-2.4 -1.44,-3.312 -0.912,-0.96 -2.016,-1.44 -3.312,-1.44 l -8.712,-0.072 0.072,-4.968 c -2e-5,-1.776 -0.648,-3.288 -1.944,-4.536 -1.248,-1.296 -2.76,-1.944 -4.536,-1.944 l -2.952,0 c -1.824,5e-5 -3.36,0.648 -4.608,1.944 -1.248,1.248 -1.872,2.76 -1.872,4.536 l 0,26.21 c -10e-6,4.896 1.728,9.096 5.184,12.6 3.504,3.456 7.704,5.184 12.6,5.184 4.896,0 9.072,-1.728 12.53,-5.184 3.456,-3.456 5.184,-7.656 5.184,-12.6 l 0.072,-5.4"
         id="path3145"
         inkscape:connector-curvature="0"
         sodipodi:nodetypes="cccscccssccsccccccsccsscsccc"
         style="stroke-width:0.4;stroke-miterlimit:4;stroke-dasharray:1.6,1.6;stroke-dashoffset:0" />
      <path
         d="m 377.302,55.298 0,-2.952 c -4e-5,-1.776 -0.648,-3.288 -1.944,-4.536 -1.248,-1.296 -2.76,-1.944 -4.536,-1.944 -1.248,1.6e-5 -3.24,0.02402 -5.976,0.072 -1.392,1.5e-5 -2.592,-0.504 -3.6,-1.512 -1.008,-1.008 -1.512,-2.208 -1.512,-3.6 -2e-5,-1.44 0.504,-2.64 1.512,-3.6 1.008,-1.008 2.208,-1.512 3.6,-1.512 l 7.776,0 c 1.296,2.6e-5 2.4,-0.456 3.312,-1.368 0.912,-0.96 1.368,-2.088 1.368,-3.384 -4e-5,-1.296 -0.456,-2.4 -1.368,-3.312 -0.912,-0.96 -2.016,-1.44 -3.312,-1.44 l -13.18,0.072 c -4.944,3.5e-5 -9.144,1.728 -12.6,5.184 -3.456,3.456 -5.184,7.632 -5.184,12.53 -1e-5,4.896 1.728,9.096 5.184,12.6 3.456,3.456 7.656,5.184 12.6,5.184 l 11.38,0 c 1.776,0 3.288,-0.624 4.536,-1.872 1.296,-1.248 1.944,-2.784 1.944,-4.608"
         id="path3147"
         inkscape:connector-curvature="0"
         sodipodi:nodetypes="cccccsccsccccccsscsscc"
         style="stroke-width:0.4;stroke-miterlimit:4;stroke-dasharray:1.6,1.6;stroke-dashoffset:0" />
      <path
         d="m 420.496,57.028 0,-11.95 c -4e-5,-5.088 -1.752,-9.36 -5.256,-12.82 -3.456,-3.504 -7.632,-5.256 -12.53,-5.256 -1.488,3.4e-5 -2.928,0.192 -4.32,0.576 l 0,-9.792 c -10e-6,-1.776 -0.648,-3.288 -1.944,-4.536 -1.248,-1.296 -2.76,-1.944 -4.536,-1.944 l -0.504,0 c -1.776,5e-5 -3.312,0.648 -4.608,1.944 -1.248,1.248 -1.872,2.76 -1.872,4.536 l 0,37.51 c 0,1.776 0.624,3.312 1.872,4.608 1.296,1.248 2.832,1.872 4.608,1.872 l 2.952,0 c 1.776,0 3.288,-0.624 4.536,-1.872 1.296,-1.296 1.944,-2.832 1.944,-4.608 -2e-5,-1.248 -2e-5,-3.408 0,-6.48 -0.048,-1.392 0.432,-2.592 1.44,-3.6 1.008,-1.008 2.232,-1.512 3.672,-1.512 1.392,1.8e-5 2.592,0.504 3.6,1.512 1.008,1.008 1.512,2.208 1.512,3.6 l 0,8.28 c -3e-5,1.296 0.456,2.4 1.368,3.312 0.912,0.912 2.04,1.368 3.384,1.368 1.296,0 2.4,-0.456 3.312,-1.368 0.912,-0.912 1.368,-2.04 1.368,-3.384"
         id="path3149"
         inkscape:connector-curvature="0"
         sodipodi:nodetypes="cscccscscssscsssccscsscsssc"
         style="stroke-width:0.4;stroke-miterlimit:4;stroke-dasharray:1.6,1.6;stroke-dashoffset:0" />
      <path
         sodipodi:nodetypes="cscccscscssscsssccscsscsssc"
         inkscape:connector-curvature="0"
         id="path3155"
         d="m 420.496,57.028 0,-11.95 c -4e-5,-5.088 -1.752,-9.36 -5.256,-12.82 -3.456,-3.504 -7.632,-5.256 -12.53,-5.256 -1.488,3.4e-5 -2.928,0.192 -4.32,0.576 l 0,-9.792 c -10e-6,-1.776 -0.648,-3.288 -1.944,-4.536 -1.248,-1.296 -2.76,-1.944 -4.536,-1.944 l -0.504,0 c -1.776,5e-5 -3.312,0.648 -4.608,1.944 -1.248,1.248 -1.872,2.76 -1.872,4.536 l 0,37.51 c 0,1.776 0.624,3.312 1.872,4.608 1.296,1.248 2.832,1.872 4.608,1.872 l 2.952,0 c 1.776,0 3.288,-0.624 4.536,-1.872 1.296,-1.296 1.944,-2.832 1.944,-4.608 -2e-5,-1.248 -2e-5,-3.408 0,-6.48 -0.048,-1.392 0.432,-2.592 1.44,-3.6 1.008,-1.008 2.232,-1.512 3.672,-1.512 1.392,1.8e-5 2.592,0.504 3.6,1.512 1.008,1.008 1.512,2.208 1.512,3.6 l 0,8.28 c -3e-5,1.296 0.456,2.4 1.368,3.312 0.912,0.912 2.04,1.368 3.384,1.368 1.296,0 2.4,-0.456 3.312,-1.368 0.912,-0.912 1.368,-2.04 1.368,-3.384"
         style="stroke-width:0.4;stroke-miterlimit:4;stroke-dasharray:1.6,1.6;stroke-dashoffset:0" />
    </g>
  </g>
</svg>
